<svg width="122" height="118" viewBox="0 0 122 118" fill="none" xmlns="http://www.w3.org/2000/svg">
<g clip-path="url(#clip0)">
<g opacity="0.5">
<path opacity="0.5" d="M74.636 0.00174594L10.3564 29.2893L50.8689 118.002L115.148 88.7149L74.636 0.00174594Z" fill="url(#paint0_linear)"/>
</g>
<path d="M74.1157 1.02769L11.4717 29.5701L51.0888 116.323L113.733 87.7803L74.1157 1.02769Z" fill="white"/>
<path d="M57.3683 5.88984L26.2915 20.0493L29.7253 27.5685L60.8021 13.409L57.3683 5.88984Z" fill="url(#paint1_linear)"/>
<path d="M38.4733 5.62075C36.0746 6.71406 35.038 9.58915 36.1587 12.0429C37.2795 14.4966 40.133 15.5996 42.5317 14.5063C44.9303 13.413 45.967 10.5379 44.8462 8.08413C43.7255 5.63039 40.8719 4.52745 38.4733 5.62075ZM41.6729 12.6267C41.1681 12.8713 40.6019 12.9601 40.0464 12.8817C39.491 12.8033 38.9715 12.5614 38.5544 12.1867C38.1372 11.812 37.8413 11.3217 37.7045 10.7783C37.5677 10.2349 37.5961 9.66304 37.7862 9.13584C37.9762 8.60864 38.3193 8.14998 38.7715 7.81845C39.2238 7.48691 39.7647 7.29754 40.3252 7.27452C40.8857 7.25149 41.4404 7.39586 41.9183 7.68919C42.3963 7.98252 42.7759 8.41149 43.0087 8.92133C43.1646 9.25232 43.2538 9.61077 43.2711 9.97619C43.2884 10.3416 43.2334 10.7069 43.1094 11.0511C42.9853 11.3953 42.7946 11.7117 42.5482 11.9823C42.3017 12.2529 42.0043 12.4723 41.6729 12.6281V12.6267Z" fill="url(#paint2_linear)"/>
<path d="M57.0427 6.04459L26.6206 19.9058L29.9033 27.0942L60.3255 13.233L57.0427 6.04459Z" fill="#1182D4"/>
<path d="M38.6224 5.9484C37.7812 6.33155 37.0725 6.95529 36.5862 7.74072C36.0998 8.52616 35.8576 9.43801 35.8901 10.361C35.9226 11.2839 36.2284 12.1765 36.7688 12.9259C37.3091 13.6753 38.0599 14.2477 38.926 14.5709C39.7921 14.8941 40.7347 14.9535 41.6347 14.7415C42.5346 14.5295 43.3513 14.0558 43.9817 13.3802C44.612 12.7045 45.0276 11.8573 45.1759 10.9458C45.3242 10.0342 45.1985 9.09917 44.8148 8.25894C44.3003 7.13239 43.3589 6.25611 42.1976 5.82281C41.0363 5.38951 39.7503 5.43469 38.6224 5.9484ZM41.6814 12.6473C41.1962 12.8683 40.6563 12.9405 40.13 12.855C39.6036 12.7695 39.1145 12.53 38.7244 12.1669C38.3343 11.8037 38.0608 11.3332 37.9384 10.8148C37.816 10.2964 37.8503 9.75333 38.0368 9.25436C38.2234 8.75538 38.5539 8.32286 38.9865 8.01148C39.4192 7.7001 39.9345 7.52384 40.4674 7.50499C41.0003 7.48614 41.5269 7.62554 41.9805 7.90557C42.4341 8.1856 42.7944 8.59369 43.0158 9.07823C43.3124 9.7281 43.3385 10.469 43.0882 11.1381C42.838 11.8071 42.3319 12.3495 41.6814 12.6459V12.6473Z" fill="#1182D4"/>
<path d="M34.245 36.1682L20.8325 42.2793L26.9506 55.6765L40.3631 49.5654L34.245 36.1682Z" fill="url(#paint3_linear)"/>
<path d="M46.415 62.6965L33.0024 68.8076L39.1205 82.2048L52.5331 76.0937L46.415 62.6965Z" fill="url(#paint4_linear)"/>
<path d="M33.9774 36.882L21.5469 42.5457L27.217 54.962L39.6475 49.2983L33.9774 36.882Z" fill="#69F0AE"/>
<path d="M45.9896 63.1845L33.5591 68.8481L39.2292 81.2645L51.6597 75.6008L45.9896 63.1845Z" fill="#1182D4"/>
<path d="M60.9442 29.2258L43.9058 36.989L44.4481 38.1766L61.4866 30.4134L60.9442 29.2258Z" fill="#E0E0E0"/>
<path d="M72.8534 25.952L44.7202 38.7703L45.2626 39.9579L73.3958 27.1396L72.8534 25.952Z" fill="#E0E0E0"/>
<path d="M71.6838 28.6361L45.5322 40.5515L46.0746 41.7392L72.2261 29.8238L71.6838 28.6361Z" fill="#E0E0E0"/>
<path d="M72.9569 55.5298L55.9185 63.293L56.4608 64.4806L73.4993 56.7174L72.9569 55.5298Z" fill="#E0E0E0"/>
<path d="M84.8656 52.2547L56.7324 65.073L57.2748 66.2606L85.408 53.4424L84.8656 52.2547Z" fill="#E0E0E0"/>
<path d="M83.6965 54.9398L57.5449 66.8552L58.0873 68.0429L84.2388 56.1275L83.6965 54.9398Z" fill="#E0E0E0"/>
<path d="M27.4383 46.467L30.6392 47.5052L31.6924 41.3516L33.2501 41.777L31.498 49.3848L26.6704 47.2711L27.4383 46.467Z" fill="url(#paint5_linear)"/>
<path d="M27.8463 46.3855L30.6296 47.2874L31.5449 41.9365L32.8986 42.3069L31.3754 48.9218L27.1777 47.085L27.8463 46.3855Z" fill="white"/>
<path d="M39.9332 72.8523L42.7165 73.7542L43.6318 68.4033L44.9855 68.7737L43.4623 75.3886L39.2646 73.5518L39.9332 72.8523Z" fill="white"/>
<path d="M93.369 73.4729L53.623 91.5823L59.6662 104.815L99.4121 86.706L93.369 73.4729Z" fill="#E0E0E0"/>
<path d="M87.6068 84.0194C86.0794 83.5843 84.5162 83.6669 84.0295 85.4115C83.8655 85.9995 83.8462 86.9124 83.2148 87.2153C82.2857 87.6615 81.165 86.7692 80.3585 86.4057C78.8559 85.7282 77.3134 86.1895 76.4435 87.6133C76.0024 88.3348 75.8135 89.1651 75.6633 89.9872C75.5985 90.3438 75.5902 90.7844 75.4399 91.1204C75.1518 91.7634 74.2503 91.7056 73.6589 91.6808C73.5293 91.6808 73.397 91.6657 73.2646 91.6519C73.7321 91.0085 73.9656 90.2249 73.9263 89.4309C73.8877 88.1269 73.0399 86.7004 71.558 86.8601C70.2305 86.9978 69.2958 88.2784 69.4447 89.5741C69.5715 90.6756 70.2897 91.5294 71.2106 92.0526C70.7584 92.2523 70.276 92.4079 69.8486 92.6144C69.649 92.7109 69.4552 92.819 69.2682 92.938C67.9766 92.3156 66.2796 92.1986 65.1175 92.8333C64.5551 93.1404 64.9659 94.0533 65.5311 93.7435C66.4161 93.2602 67.3921 93.3814 68.3171 93.6884L68.3943 93.716C68.3029 93.8329 68.2221 93.9578 68.153 94.0891C67.6306 95.1026 68.153 96.7053 69.424 96.8155C71.2161 96.9683 71.3002 94.6027 70.327 93.6609C70.2856 93.621 70.2442 93.5824 70.2001 93.5452C70.6027 93.3511 71.0383 93.2051 71.4229 93.0413C71.758 92.8995 72.0769 92.7222 72.3741 92.5125L72.443 92.5304C73.8119 92.8402 75.9486 92.9366 76.4407 91.2801C76.8626 89.8426 76.9025 86.7899 79.1771 87.0721C80.1049 87.1864 80.8658 87.8983 81.7481 88.1558C82.538 88.3913 83.4519 88.4009 84.0999 87.8198C84.6347 87.3406 84.7547 86.6329 84.9187 85.972C85.0028 85.6305 85.0855 85.2229 85.364 84.9792C85.8671 84.5399 86.6984 84.7988 87.2594 84.9585C87.8729 85.132 88.2286 84.1957 87.6068 84.0194ZM69.8238 95.6671C69.5219 95.9659 69.2021 95.7291 69.0408 95.4165C68.845 95.0365 68.9291 94.6619 69.1786 94.3273C69.2194 94.2727 69.2632 94.2203 69.3096 94.1704C69.9065 94.5559 70.3945 95.1081 69.8293 95.6671H69.8238ZM70.8825 88.2315C71.5028 87.656 72.3672 87.7826 72.7366 88.573C73.1061 89.3634 72.9434 90.4787 72.4251 91.1755C72.3564 91.2669 72.2803 91.3525 72.1976 91.4316C71.8364 91.311 71.5024 91.1205 71.2147 90.8712C70.4814 90.2102 70.0664 88.9889 70.888 88.2274L70.8825 88.2315Z" fill="#1182D4"/>
<path d="M95.8741 30.5285L84.7466 34.8618C82.654 34.7062 78.2509 34.1389 73.881 32.0804C69.0162 29.7891 63.4428 29.7946 58.7172 32.1946C47.8268 32.4549 41.8329 31.0614 38.6347 29.7423L39.4784 28.0128L28.1992 23.6203L0 10.9963V62.737L9.86891 67.1295L15.1625 54.4449L26.7876 59.8151L29.0195 54.1503L36.6524 59.8082L37.1721 60.2447L36.4566 60.9869C35.8006 61.6789 35.4351 62.5957 35.4351 63.5487C35.4351 64.5017 35.8006 65.4185 36.4566 66.1105C36.7741 66.4457 37.1566 66.7127 37.5809 66.8952C38.0052 67.0777 38.4623 67.1718 38.9242 67.1718C39.3861 67.1718 39.8432 67.0777 40.2675 66.8952C40.6918 66.7127 41.0743 66.4457 41.3918 66.1105L41.0003 66.5236C40.3443 67.2157 39.9787 68.1325 39.9787 69.0855C39.9787 70.0385 40.3443 70.9553 41.0003 71.6473C41.3177 71.9825 41.7003 72.2495 42.1245 72.432C42.5488 72.6144 43.0059 72.7086 43.4678 72.7086C43.9298 72.7086 44.3869 72.6144 44.8111 72.432C45.2354 72.2495 45.618 71.9825 45.9354 71.6473L48.1962 69.2996L46.644 70.9106C45.988 71.6027 45.6224 72.5195 45.6224 73.4725C45.6224 74.4255 45.988 75.3423 46.644 76.0343C46.9614 76.3695 47.344 76.6365 47.7683 76.819C48.1925 77.0014 48.6496 77.0956 49.1115 77.0956C49.5735 77.0956 50.0306 77.0014 50.4548 76.819C50.8791 76.6365 51.2617 76.3695 51.5791 76.0343L53.811 73.7169L52.8722 74.6918C52.4136 75.1752 52.158 75.8158 52.158 76.4818C52.158 77.1478 52.4136 77.7884 52.8722 78.2719C53.0939 78.5059 53.3611 78.6923 53.6573 78.8197C53.9536 78.9471 54.2728 79.0127 54.5953 79.0127C54.9179 79.0127 55.2371 78.9471 55.5334 78.8197C55.8296 78.6923 56.0968 78.5059 56.3185 78.2719L57.8073 76.7269C60.3645 78.5927 62.4337 79.9545 63.4469 80.307C67.6693 81.7693 67.6693 78.8405 67.6693 78.8405C73.3089 81.768 76.1294 75.9131 76.1294 75.9131C83.1792 78.8405 83.1792 71.5206 83.1792 71.5206C84.9409 72.7406 86.212 72.1816 87.0997 71.1075C88.3087 69.6507 88.4562 67.5949 87.6263 65.9453L94.3646 59.7256L97.2788 65.6768L108.904 60.3067L114.198 72.0287L121.993 68.5519V17.3524L95.8741 30.5285Z" fill="url(#paint6_linear)"/>
<path d="M94.0018 57.6229L81.7301 68.5175L72.1865 50.8125L94.0018 45.3652V57.6229Z" fill="#BE7C5E"/>
<path d="M35.3731 29.0222C35.3731 29.0222 39.3115 34.4695 62.6418 33.1077L76.2769 53.5362L85.4138 63.8042C86.8488 65.418 86.9301 67.8649 85.5213 69.5007C84.6652 70.4935 83.4342 71.0154 81.7303 69.8794C81.7303 69.8794 81.7303 76.6884 74.9135 73.9648C74.9135 73.9648 72.1868 79.4121 66.7333 76.6884C66.7333 76.6884 66.7333 79.4121 62.6432 78.0503C58.5531 76.6884 36.7364 58.9849 36.7364 58.9849L27.1929 52.1758L35.3731 29.0222Z" fill="#FDA57D"/>
<path d="M84.457 35.8326C84.457 35.8326 78.5652 35.8326 72.7395 33.1902C67.4418 30.7902 61.2729 31.0959 56.3846 34.2463C52.4006 36.8144 48.9488 41.0664 49.0136 48.0889C49.0136 48.0889 54.3154 53.5362 59.9205 42.6417H64.0106C64.0106 42.6417 67.9491 56.2612 79.009 54.8966C90.069 53.532 92.6441 52.173 92.6441 52.173L84.457 35.8326Z" fill="#BE7C5E"/>
<path d="M48.6622 62.7242L48.2197 62.2821C47.024 61.0878 45.0854 61.0878 43.8897 62.2821L40.7208 65.4475C39.5251 66.6418 39.5251 68.5782 40.7208 69.7725L41.1633 70.2145C42.359 71.4088 44.2976 71.4088 45.4932 70.2145L48.6622 67.0492C49.8579 65.8548 49.8579 63.9185 48.6622 62.7242Z" fill="#BE7C5E"/>
<path d="M44.2677 57.5794L43.8251 57.1374C42.6294 55.943 40.6909 55.943 39.4952 57.1374L36.3262 60.3027C35.1305 61.497 35.1305 63.4334 36.3262 64.6277L36.7688 65.0697C37.9644 66.2641 39.903 66.2641 41.0987 65.0697L44.2677 61.9044C45.4633 60.7101 45.4633 58.7737 44.2677 57.5794Z" fill="#BE7C5E"/>
<path d="M54.7965 66.1277L54.3539 65.6857C53.1583 64.4914 51.2197 64.4914 50.024 65.6857L46.1737 69.5316C44.978 70.726 44.978 72.6623 46.1737 73.8566L46.6162 74.2987C47.8119 75.493 49.7505 75.493 50.9461 74.2987L54.7965 70.4527C55.9921 69.2584 55.9921 67.322 54.7965 66.1277Z" fill="#BE7C5E"/>
<path d="M58.0255 70.8662L57.7165 70.5575C56.8815 69.7235 55.5277 69.7235 54.6927 70.5575L52.2626 72.9848C51.4276 73.8189 51.4276 75.1711 52.2626 76.0051L52.5716 76.3138C53.4066 77.1478 54.7604 77.1478 55.5954 76.3138L58.0255 73.8865C58.8604 73.0524 58.8604 71.7002 58.0255 70.8662Z" fill="#BE7C5E"/>
<path d="M107.636 60.3465L95.3654 65.7938L83.0938 35.8325L94.0021 31.7471L107.636 60.3465Z" fill="white"/>
<path d="M14.9224 53.5376L27.1927 58.9849L39.4643 29.0236L28.556 24.9368L14.9224 53.5376Z" fill="white"/>
<path d="M1.2876 12.6804L28.5563 24.9367L10.8325 65.7939L1.2876 61.7085V12.6804Z" fill="#333333"/>
<path d="M121.271 19.4895L94.002 31.7472L111.727 72.603L121.271 68.5175V19.4895Z" fill="#4D8AF0"/>
</g>
<defs>
<linearGradient id="paint0_linear" x1="83.0093" y1="103.358" x2="42.5732" y2="14.6104" gradientUnits="userSpaceOnUse">
<stop stop-color="#808080" stop-opacity="0.25"/>
<stop offset="0.54" stop-color="#808080" stop-opacity="0.12"/>
<stop offset="1" stop-color="#808080" stop-opacity="0.1"/>
</linearGradient>
<linearGradient id="paint1_linear" x1="19609.7" y1="-7514.24" x2="19404" y2="-7965.71" gradientUnits="userSpaceOnUse">
<stop stop-color="#808080" stop-opacity="0.25"/>
<stop offset="0.54" stop-color="#808080" stop-opacity="0.12"/>
<stop offset="1" stop-color="#808080" stop-opacity="0.1"/>
</linearGradient>
<linearGradient id="paint2_linear" x1="5795.04" y1="-1492.9" x2="5508.8" y2="-2121.15" gradientUnits="userSpaceOnUse">
<stop stop-color="#808080" stop-opacity="0.25"/>
<stop offset="0.54" stop-color="#808080" stop-opacity="0.12"/>
<stop offset="1" stop-color="#808080" stop-opacity="0.1"/>
</linearGradient>
<linearGradient id="paint3_linear" x1="7942.66" y1="1783.57" x2="7289.68" y2="350.436" gradientUnits="userSpaceOnUse">
<stop stop-color="#808080" stop-opacity="0.25"/>
<stop offset="0.54" stop-color="#808080" stop-opacity="0.12"/>
<stop offset="1" stop-color="#808080" stop-opacity="0.1"/>
</linearGradient>
<linearGradient id="paint4_linear" x1="9266.13" y1="4639.59" x2="8613.09" y2="3206.33" gradientUnits="userSpaceOnUse">
<stop stop-color="#808080" stop-opacity="0.25"/>
<stop offset="0.54" stop-color="#808080" stop-opacity="0.12"/>
<stop offset="1" stop-color="#808080" stop-opacity="0.1"/>
</linearGradient>
<linearGradient id="paint5_linear" x1="3645.36" y1="1069.05" x2="3470.5" y2="685.265" gradientUnits="userSpaceOnUse">
<stop stop-color="#808080" stop-opacity="0.25"/>
<stop offset="0.54" stop-color="#808080" stop-opacity="0.12"/>
<stop offset="1" stop-color="#808080" stop-opacity="0.1"/>
</linearGradient>
<linearGradient id="paint6_linear" x1="73149.5" y1="42337.8" x2="73149.5" y2="7037.35" gradientUnits="userSpaceOnUse">
<stop stop-color="#808080" stop-opacity="0.25"/>
<stop offset="0.54" stop-color="#808080" stop-opacity="0.12"/>
<stop offset="1" stop-color="#808080" stop-opacity="0.1"/>
</linearGradient>
<clipPath id="clip0">
<rect width="122" height="118" fill="white"/>
</clipPath>
</defs>
</svg>
