<svg width="31" height="53" viewBox="0 0 31 53" fill="none" xmlns="http://www.w3.org/2000/svg">
<path d="M30.9117 16.7019C30.9117 25.923 15.4559 52.0359 15.4559 52.0359C15.4559 52.0359 8.88711e-07 25.923 8.88711e-07 16.7019C-0.00068753 14.5089 0.398581 12.3371 1.175 10.3108C1.95142 8.28447 3.08978 6.44322 4.52506 4.89223C5.96034 3.34123 7.66442 2.11089 9.53995 1.27147C11.4155 0.43205 13.4257 0 15.4559 0C17.486 0 19.4962 0.43205 21.3718 1.27147C23.2473 2.11089 24.9514 3.34123 26.3866 4.89223C27.8219 6.44322 28.9603 8.28447 29.7367 10.3108C30.5131 12.3371 30.9124 14.5089 30.9117 16.7019Z" fill="#FF5252"/>
<path d="M15.4559 20.5847C18.0366 20.5847 20.1286 18.3247 20.1286 15.537C20.1286 12.7492 18.0366 10.4893 15.4559 10.4893C12.8752 10.4893 10.7832 12.7492 10.7832 15.537C10.7832 18.3247 12.8752 20.5847 15.4559 20.5847Z" fill="white"/>
</svg>
